<?xml version="1.0" encoding="utf-8"?>
<!-- Generator: Isometric v2.5.4 (isometricapp.com) -->
<!DOCTYPE svg PUBLIC "-//W3C//DTD SVG 1.1//EN" "http://www.w3.org/Graphics/SVG/1.1/DTD/svg11.dtd">
<svg version="1.1" id="Isometric" xmlns="http://www.w3.org/2000/svg" x="0px" y="0px" width="512px" height="512px">
<path class="top" fill="rgb(80.0%,80.0%,80.0%)" d=" M397.391 261.461 377.699 250.092 338.314 272.831 358.007 284.200 Z"/>
<path class="top" fill="rgb(88.2%,78.0%,58.0%)" d=" M62.622 215.984 62.622 170.506 23.237 193.245 Z"/>
<path class="left" fill="rgb(30.0%,30.0%,30.0%)" d=" M338.314 272.831 338.314 284.200 328.468 289.885 338.314 295.569 338.314 363.786 358.007 375.155 358.007 284.200 Z"/>
<path class="right" fill="rgb(72.2%,56.1%,34.9%)" d=" M456.468 79.552 180.776 238.723 180.776 284.200 456.468 125.029 Z"/>
<path class="top" fill="rgb(88.2%,78.0%,58.0%)" d=" M328.468 289.885 220.160 352.416 33.083 244.407 23.237 250.092 220.160 363.786 338.314 295.569 Z"/>
<path class="left" fill="rgb(55.3%,35.7%,16.5%)" d=" M23.237 250.092 23.237 386.524 220.160 500.218 220.160 363.786 Z"/>
<path class="right" fill="rgb(72.2%,56.1%,34.9%)" d=" M495.853 204.615 397.391 261.461 397.391 352.416 358.007 375.155 338.314 363.786 338.314 295.569 220.160 363.786 220.160 500.218 495.853 341.047 Z"/>
<path class="left" fill="rgb(55.3%,35.7%,16.5%)" d=" M62.622 170.506 62.622 215.984 23.237 193.245 23.237 238.723 220.160 352.416 220.160 306.939 180.776 284.200 180.776 238.723 Z"/>
<path class="right" fill="rgb(50.0%,50.0%,50.0%)" d=" M358.007 284.200 358.007 375.155 397.391 352.416 397.391 261.461 Z"/>
<path class="top" fill="rgb(88.2%,78.0%,58.0%)" d=" M456.468 125.029 180.776 284.200 220.160 306.939 495.853 147.768 Z"/>
<path class="top" fill="rgb(88.2%,78.0%,58.0%)" d=" M486.007 198.930 387.545 255.777 397.391 261.461 495.853 204.615 Z"/>
<path class="right" fill="rgb(72.2%,56.1%,34.9%)" d=" M338.314 272.831 377.699 250.092 387.545 255.777 495.853 193.245 495.853 147.768 220.160 306.939 220.160 352.416 338.314 284.200 Z"/>
<path class="top" fill="rgb(88.2%,78.0%,58.0%)" d=" M338.314 11.335 62.622 170.506 180.776 238.723 456.468 79.552 Z"/>
</svg>