<?xml version="1.0" encoding="utf-8"?>
<!-- Generator: Isometric v2.5.4 (isometricapp.com) -->
<!DOCTYPE svg PUBLIC "-//W3C//DTD SVG 1.1//EN" "http://www.w3.org/Graphics/SVG/1.1/DTD/svg11.dtd">
<svg version="1.1" id="Isometric" xmlns="http://www.w3.org/2000/svg" x="0px" y="0px" width="512px" height="512px">
<path class="right" fill="rgb(81.6%,87.8%,92.2%)" d=" M285.518 447.805 285.518 505.031 335.077 476.418 335.077 419.193 Z"/>
<path class="left" fill="rgb(53.3%,67.1%,76.1%)" d=" M62.503 104.452 62.503 218.903 87.283 233.210 87.283 261.822 235.959 347.661 235.959 204.597 Z"/>
<path class="left" fill="rgb(53.3%,67.1%,76.1%)" d=" M285.518 319.048 235.959 347.661 235.959 376.273 310.297 419.193 310.297 333.354 Z"/>
<path class="left" fill="rgb(53.3%,67.1%,76.1%)" d=" M285.518 447.805 235.959 419.193 235.959 476.418 285.518 505.031 Z"/>
<path class="top" fill="rgb(92.2%,96.9%,97.3%)" d=" M335.077 419.193 322.687 412.039 310.297 419.193 273.128 397.733 235.959 419.193 285.518 447.805 Z"/>
<path class="top" fill="rgb(92.2%,96.9%,97.3%)" d=" M359.856 75.839 359.856 104.452 235.959 175.984 112.062 104.452 112.062 75.839 62.503 104.452 235.959 204.597 409.415 104.452 Z"/>
<path class="top" fill="rgb(92.2%,96.9%,97.3%)" d=" M359.856 276.129 285.518 319.048 310.297 333.354 384.635 290.435 Z"/>
<path class="right" fill="rgb(81.6%,87.8%,92.2%)" d=" M384.635 233.210 409.415 218.903 409.415 104.452 235.959 204.597 235.959 347.661 384.635 261.822 Z"/>
<path class="left" fill="rgb(53.3%,67.1%,76.1%)" d=" M112.062 104.452 235.959 175.984 235.959 147.371 112.062 75.839 Z"/>
<path class="right" fill="rgb(81.6%,87.8%,92.2%)" d=" M310.297 333.354 310.297 419.193 384.635 376.273 384.635 290.435 Z"/>
<path class="top" fill="rgb(92.2%,96.9%,97.3%)" d=" M235.959 4.307 112.062 75.839 235.959 147.371 359.856 75.839 Z"/>
<path class="left" fill="rgb(81.6%,87.8%,92.2%)" d=" M359.856 75.839 235.959 147.371 235.959 175.984 359.856 104.452 Z"/>
</svg>