<svg id="Hexels SVG Export" xmlns="http://www.w3.org/2000/svg" version="1.1" xmlns:xlink="http://www.w3.org/1999/xlink" viewBox="0 -0 512 514" xml:space="preserve">
<g id="Root" transform="matrix(1.000, 0.000, 0.000, 1.000, 0.000, -0.000)">
<g id="Layer 1" transform="matrix(1.000, 0.000, 0.000, 1.000, 0.000, -0.000)">
<path d="M 268.80,50.99 L 191.26,96.07 L 268.80,141.15 L 346.34,96.07 L 268.80,50.99  z
" style="fill:#b27856;fill-opacity:1.00"/>
<path d="M 192.00,95.33 L 140.21,126.07 L 268.80,200.27 L 397.39,126.07 L 345.61,95.33 L 345.08,125.10 L 268.80,169.23 L 192.51,125.10 L 192.00,95.33  z
" style="fill:#b27856;fill-opacity:1.00"/>
<path d="M 192.14,95.35 L 191.48,126.16 L 268.67,170.70 L 269.32,139.89 L 192.14,95.35  z
" style="fill:#711a1a;fill-opacity:1.00"/>
<path d="M 345.46,95.35 L 268.28,139.88 L 268.93,170.70 L 346.12,126.16 L 345.46,95.35  z
" style="fill:#56b99d;fill-opacity:1.00"/>
<path d="M 140.43,124.99 L 140.16,273.80 L 268.56,348.03 L 269.32,317.25 L 192.64,273.06 L 192.37,185.39 L 268.67,229.82 L 269.27,198.96 L 140.43,124.99  z
" style="fill:#711a1a;fill-opacity:1.00"/>
<path d="M 397.17,124.99 L 268.33,198.96 L 268.93,229.82 L 345.23,185.40 L 344.96,273.06 L 268.28,317.25 L 269.04,348.04 L 397.44,273.80 L 397.17,124.99  z
" style="fill:#56b99d;fill-opacity:1.00"/>
<path d="M 191.30,184.51 L 191.30,273.68 L 218.30,258.90 L 218.29,199.28 L 191.30,184.51  z
" style="fill:#ab4f20;fill-opacity:1.00"/>
<path d="M 346.30,184.51 L 319.30,199.29 L 319.30,258.90 L 346.29,273.69 L 346.30,184.51  z
" style="fill:#711a1a;fill-opacity:1.00"/>
<path d="M 217.23,198.89 L 216.96,259.02 L 268.80,288.95 L 320.64,259.02 L 320.37,198.89 L 268.80,228.35 L 217.23,198.89  z
" style="fill:#1a1a1a;fill-opacity:1.00"/>
<path d="M 217.74,257.93 L 191.44,273.91 L 268.80,318.51 L 346.16,273.91 L 319.87,257.93 L 268.80,287.48 L 217.74,257.93  z
" style="fill:#b27856;fill-opacity:1.00"/>
<path d="M 166.64,287.52 L 140.31,303.55 L 268.80,377.64 L 397.29,303.55 L 370.96,287.52 L 268.80,346.60 L 166.64,287.52  z
" style="fill:#b27856;fill-opacity:1.00"/>
<path d="M 140.88,302.26 L 140.10,362.35 L 165.77,377.27 L 165.89,406.99 L 243.07,451.52 L 243.58,421.87 L 269.44,436.38 L 269.33,376.38 L 140.88,302.26  z
" style="fill:#711a1a;fill-opacity:1.00"/>
<path d="M 396.72,302.26 L 268.27,376.39 L 268.16,436.39 L 294.04,421.88 L 294.54,451.52 L 371.72,406.99 L 371.85,377.26 L 397.50,362.35 L 396.72,302.26  z
" style="fill:#56b99d;fill-opacity:1.00"/>
<path d="M 242.83,420.60 L 242.82,451.43 L 269.54,436.02 L 242.83,420.60  z
" style="fill:#ab4f20;fill-opacity:1.00"/>
<path d="M 294.77,420.60 L 268.06,436.01 L 294.77,451.44 L 294.77,420.60  z
" style="fill:#711a1a;fill-opacity:1.00"/>
</g>
<g id="Layer 2" transform="matrix(1.000, 0.000, 0.000, 1.000, 0.000, -0.000)">
<path d="M 76.80,161.84 L 50.46,177.36 L 76.80,192.88 L 103.14,177.36 L 76.80,161.84  z
" style="fill:#d5d831;fill-opacity:1.00"/>
<path d="M 50.83,176.72 L 50.56,207.29 L 77.17,222.34 L 77.44,191.77 L 50.83,176.72  z
" style="fill:#9d6b12;fill-opacity:1.00"/>
<path d="M 102.77,176.72 L 76.16,191.77 L 76.43,222.34 L 103.04,207.29 L 102.77,176.72  z
" style="fill:#a5982b;fill-opacity:1.00"/>
<path d="M 51.20,220.96 L 24.86,236.48 L 51.20,252.00 L 77.54,236.48 L 51.20,220.96  z
" style="fill:#d5d831;fill-opacity:1.00"/>
<path d="M 25.23,235.84 L 24.96,266.41 L 51.57,281.46 L 51.84,250.89 L 25.23,235.84  z
" style="fill:#9d6b12;fill-opacity:1.00"/>
<path d="M 77.17,235.84 L 50.56,250.89 L 50.83,281.46 L 77.44,266.41 L 77.17,235.84  z
" style="fill:#a5982b;fill-opacity:1.00"/>
<path d="M 76.66,265.32 L 51.05,280.10 L 38.25,272.71 L 12.16,288.58 L 63.86,318.50 L 90.34,303.00 L 64.74,288.20 L 90.26,273.78 L 76.66,265.32  z
" style="fill:#d28b2f;fill-opacity:1.00"/>
<path d="M 89.97,272.79 L 63.26,288.21 L 89.97,303.64 L 89.97,272.79  z
" style="fill:#d27700;fill-opacity:1.00"/>
<path d="M 12.80,287.48 L 12.24,318.26 L 64.01,348.07 L 64.56,317.30 L 12.80,287.48  z
" style="fill:#ae4506;fill-opacity:1.00"/>
<path d="M 89.97,302.35 L 63.36,317.41 L 63.63,347.98 L 90.24,332.92 L 89.97,302.35  z
" style="fill:#d27700;fill-opacity:1.00"/>
<path d="M 89.23,302.35 L 89.22,333.19 L 115.94,317.78 L 89.23,302.35  z
" style="fill:#eb6d45;fill-opacity:1.00"/>
<path d="M 12.80,317.04 L 12.24,347.82 L 64.01,377.64 L 64.56,346.86 L 12.80,317.04  z
" style="fill:#841111;fill-opacity:1.00"/>
<path d="M 115.20,317.04 L 63.44,346.86 L 63.99,377.64 L 115.76,347.81 L 115.20,317.04  z
" style="fill:#c8481f;fill-opacity:1.00"/>
</g>
<g id="Layer 3" transform="matrix(1.000, 0.000, 0.000, 1.000, 0.000, -0.000)">
<path d="M 448.00,139.67 L 421.66,155.19 L 448.00,170.71 L 474.34,155.19 L 448.00,139.67  z
" style="fill:#bbecdb;fill-opacity:1.00"/>
<path d="M 421.70,154.95 L 421.68,244.06 L 447.37,259.03 L 447.37,288.59 L 474.24,303.37 L 474.30,243.63 L 448.70,228.85 L 448.69,169.72 L 421.70,154.95  z
" style="fill:#408d72;fill-opacity:1.00"/>
<path d="M 474.24,154.82 L 447.30,169.73 L 447.36,229.47 L 474.30,214.56 L 474.24,154.82  z
" style="fill:#6cd1ae;fill-opacity:1.00"/>
<path d="M 473.60,213.57 L 447.26,229.09 L 473.60,244.61 L 499.94,229.09 L 473.60,213.57  z
" style="fill:#bbecdb;fill-opacity:1.00"/>
<path d="M 499.90,228.85 L 472.90,243.63 L 472.90,302.76 L 447.30,317.54 L 447.36,377.27 L 474.24,362.49 L 474.25,332.92 L 499.92,317.95 L 499.90,228.85  z
" style="fill:#6cd1ae;fill-opacity:1.00"/>
<path d="M 448.00,287.48 L 421.66,302.99 L 448.00,318.51 L 474.34,302.99 L 448.00,287.48  z
" style="fill:#bbecdb;fill-opacity:1.00"/>
<path d="M 421.76,302.63 L 421.70,362.36 L 448.64,377.27 L 448.70,317.52 L 421.76,302.63  z
" style="fill:#408d72;fill-opacity:1.00"/>
</g>
</g></svg>
