<?xml version="1.0" encoding="utf-8"?>
<!-- Generator: Isometric v2.5.4 (isometricapp.com) -->
<!DOCTYPE svg PUBLIC "-//W3C//DTD SVG 1.1//EN" "http://www.w3.org/Graphics/SVG/1.1/DTD/svg11.dtd">
<svg version="1.1" id="Isometric" xmlns="http://www.w3.org/2000/svg" x="0px" y="0px" width="512px" height="512px">
<path class="right" fill="rgb(50.0%,50.0%,50.0%)" d=" M67.788 434.217 67.788 449.690 94.589 434.217 94.589 418.744 Z"/>
<path class="right" fill="rgb(25.1%,36.9%,47.8%)" d=" M215.191 441.954 241.992 426.480 215.191 411.007 Z"/>
<path class="top" fill="rgb(80.0%,80.0%,80.0%)" d=" M215.191 287.221 215.191 256.274 188.391 271.747 Z"/>
<path class="top" fill="rgb(53.3%,67.1%,76.1%)" d=" M349.194 271.747 241.992 333.641 134.789 271.747 107.989 287.221 241.992 364.587 349.194 302.694 Z"/>
<path class="left" fill="rgb(18.4%,19.4%,24.1%)" d=" M268.792 225.327 268.792 256.274 295.593 271.747 295.593 209.854 Z"/>
<path class="top" fill="rgb(80.0%,80.0%,80.0%)" d=" M349.194 240.801 322.393 225.327 322.393 256.274 Z"/>
<path class="top" fill="rgb(80.0%,80.0%,80.0%)" d=" M349.194 86.067 322.393 101.541 349.194 117.014 375.995 101.541 Z"/>
<path class="left" fill="rgb(18.4%,19.4%,24.1%)" d=" M295.593 147.961 268.792 132.487 268.792 163.434 295.593 178.907 Z"/>
<path class="right" fill="rgb(50.0%,50.0%,50.0%)" d=" M188.391 271.747 215.191 256.274 215.191 225.327 188.391 209.854 Z"/>
<path class="top" fill="rgb(80.0%,80.0%,80.0%)" d=" M295.593 178.907 268.792 163.434 268.792 194.381 Z"/>
<path class="top" fill="rgb(80.0%,80.0%,80.0%)" d=" M295.593 117.014 268.792 132.487 295.593 147.961 322.393 132.487 Z"/>
<path class="top" fill="rgb(53.3%,67.1%,76.1%)" d=" M107.989 364.587 54.388 395.534 67.788 403.271 121.389 372.324 Z"/>
<path class="top" fill="rgb(80.0%,80.0%,80.0%)" d=" M349.194 147.961 322.393 132.487 322.393 163.434 Z"/>
<path class="right" fill="rgb(25.1%,36.9%,47.8%)" d=" M121.389 387.797 134.789 380.060 134.789 349.114 107.989 364.587 121.389 372.324 67.788 403.271 67.788 434.217 121.389 403.271 Z"/>
<path class="right" fill="rgb(50.0%,50.0%,50.0%)" d=" M134.789 240.801 161.590 225.327 161.590 194.381 134.789 178.907 Z"/>
<path class="left" fill="rgb(19.2%,21.7%,38.6%)" d=" M67.788 434.217 67.788 403.271 54.388 395.534 54.388 426.480 Z"/>
<path class="left" fill="rgb(19.2%,21.7%,38.6%)" d=" M27.587 411.007 0.786 395.534 0.786 426.480 27.587 441.954 Z"/>
<path class="top" fill="rgb(53.3%,67.1%,76.1%)" d=" M134.789 349.114 107.989 333.641 107.989 364.587 Z"/>
<path class="top" fill="rgb(53.3%,67.1%,76.1%)" d=" M27.587 364.587 14.187 372.324 27.587 380.060 Z"/>
<path class="left" fill="rgb(19.2%,21.7%,38.6%)" d=" M27.587 380.060 14.187 372.324 14.187 387.797 Z"/>
<path class="left" fill="rgb(18.4%,19.4%,24.1%)" d=" M67.788 434.217 54.388 426.480 40.987 434.217 67.788 449.690 Z"/>
<path class="right" fill="rgb(50.0%,50.0%,50.0%)" d=" M322.393 256.274 322.393 194.381 349.194 178.907 349.194 240.801 ZM268.792 287.221 268.792 225.327 295.593 209.854 295.593 271.747 ZM375.995 101.541 349.194 117.014 349.194 147.961 322.393 163.434 322.393 132.487 295.593 147.961 295.593 178.907 268.792 194.381 268.792 163.434 241.992 178.907 241.992 333.641 375.995 256.274 Z"/>
<path class="left" fill="rgb(18.4%,19.4%,24.1%)" d=" M161.590 194.381 161.590 256.274 134.789 240.801 134.789 178.907 ZM215.191 225.327 215.191 287.221 188.391 271.747 188.391 209.854 ZM215.191 163.434 215.191 194.381 188.391 178.907 188.391 147.961 161.590 132.487 161.590 163.434 134.789 147.961 134.789 117.014 107.989 101.541 107.989 256.274 241.992 333.641 241.992 178.907 Z"/>
<path class="top" fill="rgb(80.0%,80.0%,80.0%)" d=" M134.789 86.067 107.989 101.541 134.789 117.014 161.590 101.541 Z"/>
<path class="top" fill="rgb(80.0%,80.0%,80.0%)" d=" M241.992 147.961 215.191 163.434 241.992 178.907 268.792 163.434 Z"/>
<path class="right" fill="rgb(50.0%,50.0%,50.0%)" d=" M402.795 302.694 402.795 426.480 429.596 411.007 429.596 287.221 Z"/>
<path class="right" fill="rgb(50.0%,50.0%,50.0%)" d=" M188.391 147.961 188.391 178.907 215.191 163.434 215.191 132.487 Z"/>
<path class="right" fill="rgb(25.1%,36.9%,47.8%)" d=" M27.587 411.007 27.587 441.954 54.388 426.480 54.388 395.534 Z"/>
<path class="left" fill="rgb(18.4%,19.4%,24.1%)" d=" M349.194 271.747 349.194 395.534 402.795 426.480 402.795 302.694 Z"/>
<path class="left" fill="rgb(19.2%,21.7%,38.6%)" d=" M107.989 287.221 107.989 333.641 134.789 349.114 134.789 395.534 215.191 441.954 215.191 411.007 241.992 426.480 241.992 364.587 Z"/>
<path class="left" fill="rgb(18.4%,19.4%,24.1%)" d=" M429.596 287.221 429.596 411.007 456.396 426.480 456.396 302.694 Z"/>
<path class="right" fill="rgb(25.1%,36.9%,47.8%)" d=" M322.393 132.487 322.393 70.594 241.992 117.014 241.992 147.961 268.792 163.434 268.792 132.487 295.593 117.014 Z"/>
<path class="top" fill="rgb(53.3%,67.1%,76.1%)" d=" M27.587 380.060 0.786 395.534 27.587 411.007 54.388 395.534 Z"/>
<path class="top" fill="rgb(80.0%,80.0%,80.0%)" d=" M81.188 194.381 27.587 225.327 54.388 240.801 107.989 209.854 Z"/>
<path class="top" fill="rgb(53.3%,67.1%,76.1%)" d=" M241.992 24.174 161.590 70.594 241.992 117.014 322.393 70.594 Z"/>
<path class="left" fill="rgb(18.4%,19.4%,24.1%)" d=" M349.194 117.014 322.393 101.541 322.393 132.487 349.194 147.961 Z"/>
<path class="top" fill="rgb(80.0%,80.0%,80.0%)" d=" M161.590 163.434 161.590 132.487 134.789 147.961 Z"/>
<path class="left" fill="rgb(18.4%,19.4%,24.1%)" d=" M27.587 225.327 27.587 380.060 54.388 395.534 54.388 240.801 Z"/>
<path class="left" fill="rgb(19.2%,21.7%,38.6%)" d=" M268.792 411.007 241.992 426.480 268.792 441.954 Z"/>
<path class="top" fill="rgb(80.0%,80.0%,80.0%)" d=" M215.191 194.381 215.191 163.434 188.391 178.907 Z"/>
<path class="right" fill="rgb(50.0%,50.0%,50.0%)" d=" M456.396 302.694 456.396 426.480 509.998 395.534 509.998 271.747 Z"/>
<path class="left" fill="rgb(18.4%,19.4%,24.1%)" d=" M322.393 194.381 322.393 225.327 349.194 240.801 349.194 178.907 Z"/>
<path class="top" fill="rgb(80.0%,80.0%,80.0%)" d=" M295.593 271.747 268.792 256.274 268.792 287.221 Z"/>
<path class="left" fill="rgb(19.2%,21.7%,38.6%)" d=" M161.590 70.594 161.590 132.487 188.391 117.014 215.191 132.487 215.191 163.434 241.992 147.961 241.992 117.014 Z"/>
<path class="top" fill="rgb(80.0%,80.0%,80.0%)" d=" M188.391 117.014 161.590 132.487 188.391 147.961 215.191 132.487 Z"/>
<path class="right" fill="rgb(50.0%,50.0%,50.0%)" d=" M54.388 240.801 54.388 395.534 107.989 364.587 107.989 209.854 Z"/>
<path class="right" fill="rgb(25.1%,36.9%,47.8%)" d=" M349.194 302.694 241.992 364.587 241.992 426.480 268.792 411.007 268.792 441.954 349.194 395.534 Z"/>
<path class="right" fill="rgb(50.0%,50.0%,50.0%)" d=" M134.789 117.014 134.789 147.961 161.590 132.487 161.590 101.541 Z"/>
<path class="top" fill="rgb(80.0%,80.0%,80.0%)" d=" M161.590 256.274 161.590 225.327 134.789 240.801 Z"/>
<path class="top" fill="rgb(80.0%,80.0%,80.0%)" d=" M509.998 271.747 483.197 256.274 456.396 271.747 429.596 256.274 402.795 271.747 375.995 256.274 349.194 271.747 402.795 302.694 429.596 287.221 456.396 302.694 Z"/>
</svg>