<?xml version="1.0" encoding="utf-8"?>
<!-- Generator: Isometric v2.5.4 (isometricapp.com) -->
<!DOCTYPE svg PUBLIC "-//W3C//DTD SVG 1.1//EN" "http://www.w3.org/Graphics/SVG/1.1/DTD/svg11.dtd">
<svg version="1.1" id="Isometric" xmlns="http://www.w3.org/2000/svg" x="0px" y="0px" width="512px" height="512px">
<path class="left" fill="rgb(97.3%,28.6%,16.5%)" d=" M154.620 231.107 98.961 198.973 98.961 263.242 154.620 295.377 Z"/>
<path class="right" fill="rgb(100.0%,78.4%,38.0%)" d=" M238.108 102.569 238.108 198.973 321.596 150.771 321.596 54.367 Z"/>
<path class="left" fill="rgb(100.0%,37.7%,5.1%)" d=" M293.767 263.242 210.278 215.040 210.278 263.242 182.449 279.309 182.449 295.377 210.278 279.309 293.767 327.511 Z"/>
<path class="top" fill="rgb(100.0%,87.5%,64.2%)" d=" M154.620 54.367 238.108 102.569 321.596 54.367 238.108 6.165 Z"/>
<path class="top" fill="rgb(100.0%,63.5%,31.6%)" d=" M238.108 198.973 210.278 182.905 196.364 190.939 210.278 198.973 210.278 215.040 293.767 263.242 405.085 198.973 321.596 150.771 Z"/>
<path class="top" fill="rgb(100.0%,49.2%,34.6%)" d=" M154.620 311.444 265.937 375.713 377.255 311.444 349.426 295.377 293.767 327.511 210.278 279.309 Z"/>
<path class="right" fill="rgb(100.0%,49.4%,5.1%)" d=" M154.620 231.107 154.620 295.377 210.278 263.242 210.278 198.973 Z"/>
<path class="right" fill="rgb(100.0%,49.4%,5.1%)" d=" M293.767 263.242 293.767 327.511 349.426 295.377 377.255 311.444 377.255 327.511 405.085 311.444 405.085 198.973 Z"/>
<path class="left" fill="rgb(78.4%,11.7%,0.0%)" d=" M154.620 439.983 265.937 504.252 265.937 375.713 154.620 311.444 Z"/>
<path class="top" fill="rgb(100.0%,78.4%,38.0%)" d=" M154.620 166.838 98.961 198.973 154.620 231.107 210.278 198.973 Z"/>
<path class="right" fill="rgb(91.5%,27.3%,15.9%)" d=" M265.937 375.713 265.937 504.252 377.255 439.983 377.255 311.444 Z"/>
<path class="left" fill="rgb(96.5%,65.9%,0.8%)" d=" M154.620 150.771 238.108 198.973 238.108 102.569 154.620 54.367 Z"/>
</svg>