<?xml version="1.0" encoding="utf-8"?>
<!-- Generator: Isometric v2.5.4 (isometricapp.com) -->
<!DOCTYPE svg PUBLIC "-//W3C//DTD SVG 1.1//EN" "http://www.w3.org/Graphics/SVG/1.1/DTD/svg11.dtd">
<svg version="1.1" id="Isometric" xmlns="http://www.w3.org/2000/svg" x="0px" y="0px" width="512px" height="512px">
<path class="left" fill="rgb(30.0%,30.0%,30.0%)" d=" M363.228 244.426 347.228 253.663 363.228 262.901 Z"/>
<path class="left" fill="rgb(30.0%,30.0%,30.0%)" d=" M363.228 336.802 347.228 346.039 363.228 355.277 Z"/>
<path class="right" fill="rgb(50.0%,50.0%,50.0%)" d=" M171.228 133.574 235.228 170.525 235.228 96.624 Z"/>
<path class="top" fill="rgb(80.0%,80.0%,80.0%)" d=" M347.228 253.663 235.228 318.327 123.228 253.663 107.228 262.901 235.228 336.802 363.228 262.901 Z"/>
<path class="left" fill="rgb(30.0%,30.0%,30.0%)" d=" M107.228 429.178 235.228 503.079 235.228 429.178 107.228 355.277 Z"/>
<path class="left" fill="rgb(30.0%,30.0%,30.0%)" d=" M107.228 336.802 235.228 410.703 235.228 336.802 107.228 262.901 Z"/>
<path class="top" fill="rgb(80.0%,80.0%,80.0%)" d=" M347.228 346.039 235.228 410.703 123.228 346.039 107.228 355.277 235.228 429.178 363.228 355.277 Z"/>
<path class="left" fill="rgb(30.0%,30.0%,30.0%)" d=" M235.228 244.426 107.228 170.525 171.228 133.574 75.228 78.149 75.228 207.475 107.228 225.950 107.228 244.426 235.228 318.327 Z"/>
<path class="left" fill="rgb(30.0%,30.0%,30.0%)" d=" M235.228 96.624 235.228 170.525 299.228 133.574 Z"/>
<path class="top" fill="rgb(80.0%,80.0%,80.0%)" d=" M203.228 4.248 75.228 78.149 171.228 133.574 235.228 96.624 299.228 133.574 235.228 170.525 171.228 133.574 107.228 170.525 235.228 244.426 427.228 133.574 Z"/>
<path class="right" fill="rgb(50.0%,50.0%,50.0%)" d=" M427.228 133.574 235.228 244.426 235.228 318.327 363.228 244.426 363.228 262.901 235.228 336.802 235.228 410.703 363.228 336.802 363.228 355.277 235.228 429.178 235.228 503.079 427.228 392.227 Z"/>
</svg>