<?xml version="1.0" encoding="utf-8"?>
<!-- Generator: Isometric v2.5.4 (isometricapp.com) -->
<!DOCTYPE svg PUBLIC "-//W3C//DTD SVG 1.1//EN" "http://www.w3.org/Graphics/SVG/1.1/DTD/svg11.dtd">
<svg version="1.1" id="Isometric" xmlns="http://www.w3.org/2000/svg" x="0px" y="0px" width="512px" height="512px">
<path class="right" fill="rgb(55.3%,35.7%,16.5%)" d=" M364.456 396.888 364.456 459.505 418.683 428.196 418.683 365.579 Z"/>
<path class="right" fill="rgb(25.9%,51.0%,42.4%)" d=" M228.886 240.346 120.431 302.963 120.431 365.579 228.886 302.963 Z"/>
<path class="left" fill="rgb(16.5%,32.6%,19.4%)" d=" M364.456 334.271 310.228 365.579 364.456 396.888 Z"/>
<path class="left" fill="rgb(16.5%,32.6%,19.4%)" d=" M364.456 146.421 310.228 115.112 310.228 177.729 364.456 209.037 Z"/>
<path class="top" fill="rgb(50.8%,75.6%,50.8%)" d=" M459.354 263.827 364.456 318.617 364.456 334.271 472.911 271.654 Z"/>
<path class="right" fill="rgb(25.9%,51.0%,42.4%)" d=" M228.886 146.421 120.431 209.037 120.431 271.654 228.886 209.037 Z"/>
<path class="left" fill="rgb(16.5%,32.6%,19.4%)" d=" M256.000 68.150 201.772 36.841 201.772 99.458 256.000 130.766 Z"/>
<path class="right" fill="rgb(25.9%,51.0%,42.4%)" d=" M364.456 146.421 364.456 209.037 418.683 177.729 418.683 115.112 Z"/>
<path class="left" fill="rgb(16.5%,32.6%,19.4%)" d=" M364.456 256.000 310.228 224.692 310.228 240.346 364.456 271.654 Z"/>
<path class="top" fill="rgb(50.8%,75.6%,50.8%)" d=" M201.772 224.692 120.431 271.654 39.089 224.692 11.975 240.346 120.431 302.963 228.886 240.346 Z"/>
<path class="right" fill="rgb(25.9%,51.0%,42.4%)" d=" M256.000 224.692 256.000 287.308 310.228 256.000 310.228 193.383 Z"/>
<path class="left" fill="rgb(16.5%,32.6%,19.4%)" d=" M174.658 334.271 174.658 349.925 256.000 396.888 256.000 334.271 215.329 310.790 Z"/>
<path class="left" fill="rgb(16.5%,32.6%,19.4%)" d=" M120.431 99.458 66.203 68.150 66.203 130.766 120.431 162.075 Z"/>
<path class="top" fill="rgb(50.8%,75.6%,50.8%)" d=" M310.228 240.346 310.228 256.000 256.000 287.308 228.886 271.654 228.886 302.963 215.329 310.790 256.000 334.271 364.456 271.654 Z"/>
<path class="left" fill="rgb(32.9%,14.1%,12.5%)" d=" M201.772 365.579 201.772 475.159 256.000 506.467 256.000 396.888 Z"/>
<path class="left" fill="rgb(32.9%,14.1%,12.5%)" d=" M66.203 334.271 66.203 459.505 120.431 490.813 120.431 365.579 Z"/>
<path class="left" fill="rgb(16.5%,32.6%,19.4%)" d=" M11.975 209.037 120.431 271.654 120.431 209.037 11.975 146.421 Z"/>
<path class="right" fill="rgb(55.3%,35.7%,16.5%)" d=" M256.000 396.888 256.000 506.467 310.228 475.159 310.228 365.579 Z"/>
<path class="right" fill="rgb(25.9%,51.0%,42.4%)" d=" M364.456 318.617 472.911 256.000 472.911 193.383 364.456 256.000 364.456 271.654 256.000 334.271 256.000 396.888 364.456 334.271 Z"/>
<path class="left" fill="rgb(32.9%,14.1%,12.5%)" d=" M364.456 396.888 310.228 365.579 310.228 428.196 364.456 459.505 Z"/>
<path class="left" fill="rgb(16.5%,32.6%,19.4%)" d=" M11.975 302.963 120.431 365.579 120.431 302.963 11.975 240.346 Z"/>
<path class="right" fill="rgb(55.3%,35.7%,16.5%)" d=" M120.431 365.579 120.431 490.813 174.658 459.505 174.658 334.271 Z"/>
<path class="top" fill="rgb(50.8%,75.6%,50.8%)" d=" M418.683 162.075 418.683 177.729 364.456 209.037 310.228 177.729 310.228 162.075 283.114 177.729 269.557 169.902 310.228 146.421 310.228 115.112 364.456 146.421 418.683 115.112 364.456 83.804 337.342 99.458 310.228 83.804 310.228 99.458 256.000 130.766 201.772 99.458 201.772 83.804 174.658 99.458 174.658 130.766 120.431 162.075 66.203 130.766 66.203 115.112 11.975 146.421 120.431 209.037 228.886 146.421 228.886 162.075 242.443 169.902 228.886 177.729 228.886 209.037 256.000 224.692 310.228 193.383 310.228 224.692 364.456 256.000 472.911 193.383 Z"/>
<path class="right" fill="rgb(25.9%,51.0%,42.4%)" d=" M310.228 162.075 310.228 146.421 269.557 169.902 283.114 177.729 Z"/>
<path class="right" fill="rgb(25.9%,51.0%,42.4%)" d=" M120.431 99.458 120.431 162.075 174.658 130.766 174.658 68.150 Z"/>
<path class="left" fill="rgb(16.5%,32.6%,19.4%)" d=" M256.000 224.692 228.886 209.037 201.772 224.692 228.886 240.346 228.886 271.654 256.000 287.308 Z"/>
<path class="right" fill="rgb(25.9%,51.0%,42.4%)" d=" M256.000 68.150 256.000 130.766 310.228 99.458 310.228 36.841 Z"/>
<path class="right" fill="rgb(25.9%,51.0%,42.4%)" d=" M472.911 271.654 364.456 334.271 364.456 396.888 472.911 334.271 Z"/>
<path class="top" fill="rgb(50.8%,75.6%,50.8%)" d=" M256.000 5.533 201.772 36.841 256.000 68.150 310.228 36.841 Z"/>
<path class="left" fill="rgb(16.5%,32.6%,19.4%)" d=" M242.443 169.902 228.886 162.075 228.886 177.729 Z"/>
</svg>