<?xml version="1.0" encoding="utf-8"?>
<!-- Generator: Isometric v2.5.4 (isometricapp.com) -->
<!DOCTYPE svg PUBLIC "-//W3C//DTD SVG 1.1//EN" "http://www.w3.org/Graphics/SVG/1.1/DTD/svg11.dtd">
<svg version="1.1" id="Isometric" xmlns="http://www.w3.org/2000/svg" x="0px" y="0px" width="512px" height="512px">
<path class="right" fill="rgb(55.3%,35.7%,16.5%)" d=" M389.490 372.326 389.490 431.447 440.690 401.886 440.690 342.766 Z"/>
<path class="top" fill="rgb(70.6%,90.2%,33.3%)" d=" M210.290 47.162 159.090 76.723 210.290 106.283 261.490 76.723 Z"/>
<path class="top" fill="rgb(70.6%,90.2%,33.3%)" d=" M312.690 32.382 261.490 61.943 312.690 91.503 363.890 61.943 Z"/>
<path class="right" fill="rgb(55.3%,35.7%,16.5%)" d=" M133.490 313.205 133.490 298.425 107.890 313.205 107.890 431.447 159.090 401.886 159.090 327.986 Z"/>
<path class="left" fill="rgb(32.9%,14.1%,12.5%)" d=" M56.690 283.645 56.690 401.886 107.890 431.447 107.890 313.205 Z"/>
<path class="left" fill="rgb(32.9%,14.1%,12.5%)" d=" M184.690 342.766 184.690 461.007 235.890 490.567 235.890 372.326 Z"/>
<path class="left" fill="rgb(25.9%,51.0%,42.4%)" d=" M312.690 91.503 261.490 61.943 261.490 106.283 287.090 91.503 312.690 106.283 Z"/>
<path class="right" fill="rgb(55.3%,35.7%,16.5%)" d=" M363.890 150.624 363.890 121.063 338.290 135.843 338.290 165.404 Z"/>
<path class="top" fill="rgb(70.6%,90.2%,33.3%)" d=" M287.090 91.503 235.890 121.063 287.090 150.624 338.290 121.063 Z"/>
<path class="top" fill="rgb(70.6%,90.2%,33.3%)" d=" M5.490 135.843 107.890 194.964 210.290 135.843 107.890 76.723 Z"/>
<path class="left" fill="rgb(25.9%,51.0%,42.4%)" d=" M5.490 254.085 107.890 313.205 107.890 194.964 5.490 135.843 Z"/>
<path class="right" fill="rgb(64.7%,78.0%,49.8%)" d=" M235.890 254.085 235.890 372.326 338.290 313.205 338.290 194.964 Z"/>
<path class="left" fill="rgb(25.9%,51.0%,42.4%)" d=" M338.290 224.524 338.290 313.205 312.690 327.986 389.490 372.326 389.490 254.085 Z"/>
<path class="right" fill="rgb(64.7%,78.0%,49.8%)" d=" M389.490 254.085 389.490 372.326 491.890 313.205 491.890 194.964 Z"/>
<path class="top" fill="rgb(70.6%,90.2%,33.3%)" d=" M312.690 180.184 235.890 135.843 133.490 194.964 235.890 254.085 338.290 194.964 338.290 224.524 389.490 254.085 491.890 194.964 389.490 135.843 Z"/>
<path class="left" fill="rgb(25.9%,51.0%,42.4%)" d=" M235.890 121.063 235.890 135.843 287.090 165.404 287.090 150.624 Z"/>
<path class="left" fill="rgb(25.9%,51.0%,42.4%)" d=" M133.490 313.205 235.890 372.326 235.890 254.085 133.490 194.964 Z"/>
<path class="right" fill="rgb(55.3%,35.7%,16.5%)" d=" M235.890 372.326 235.890 490.567 287.090 461.007 287.090 342.766 Z"/>
<path class="right" fill="rgb(64.7%,78.0%,49.8%)" d=" M235.890 135.843 235.890 121.063 261.490 106.283 261.490 76.723 210.290 106.283 210.290 135.843 107.890 194.964 107.890 313.205 133.490 298.425 133.490 194.964 Z"/>
<path class="left" fill="rgb(32.9%,14.1%,12.5%)" d=" M389.490 372.326 338.290 342.766 338.290 401.886 389.490 431.447 Z"/>
<path class="right" fill="rgb(64.7%,78.0%,49.8%)" d=" M363.890 61.943 312.690 91.503 312.690 106.283 338.290 121.063 287.090 150.624 287.090 165.404 312.690 180.184 338.290 165.404 338.290 135.843 363.890 121.063 Z"/>
<path class="left" fill="rgb(25.9%,51.0%,42.4%)" d=" M210.290 106.283 159.090 76.723 159.090 106.283 210.290 135.843 Z"/>
</svg>