<?xml version="1.0" encoding="utf-8"?>
<!-- Generator: Isometric v2.5.4 (isometricapp.com) -->
<!DOCTYPE svg PUBLIC "-//W3C//DTD SVG 1.1//EN" "http://www.w3.org/Graphics/SVG/1.1/DTD/svg11.dtd">
<svg version="1.1" id="Isometric" xmlns="http://www.w3.org/2000/svg" x="0px" y="0px" width="512px" height="512px">
<path class="right" fill="rgb(30.0%,30.0%,30.0%)" d=" M259.945 63.131 259.945 39.083 218.293 63.131 239.119 75.154 Z"/>
<path class="right" fill="rgb(30.0%,30.0%,30.0%)" d=" M426.553 159.322 426.553 135.274 384.901 159.322 405.727 171.345 Z"/>
<path class="left" fill="rgb(10.0%,10.0%,10.0%)" d=" M301.597 63.131 259.945 39.083 259.945 63.131 280.771 75.154 Z"/>
<path class="top" fill="rgb(50.0%,50.0%,50.0%)" d=" M93.337 135.274 134.989 159.322 114.163 171.345 93.337 159.322 72.511 171.345 51.686 159.322 ZM176.641 183.369 239.119 147.298 197.467 123.250 155.815 147.298 93.337 111.226 10.034 159.322 93.337 207.417 176.641 159.322 Z"/>
<path class="right" fill="rgb(30.0%,30.0%,30.0%)" d=" M259.945 255.512 259.945 231.465 218.293 255.512 239.119 267.536 Z"/>
<path class="right" fill="rgb(30.0%,30.0%,30.0%)" d=" M155.815 219.441 197.467 243.489 239.119 219.441 239.119 147.298 176.641 183.369 176.641 159.322 93.337 207.417 93.337 399.799 114.163 387.775 114.163 243.489 Z"/>
<path class="left" fill="rgb(10.0%,10.0%,10.0%)" d=" M301.597 255.512 259.945 231.465 259.945 255.512 280.771 267.536 Z"/>
<path class="top" fill="rgb(50.0%,50.0%,50.0%)" d=" M259.945 39.083 301.597 63.131 280.771 75.154 259.945 63.131 239.119 75.154 218.293 63.131 ZM259.945 15.035 176.641 63.131 259.945 111.226 343.249 63.131 Z"/>
<path class="left" fill="rgb(10.0%,10.0%,10.0%)" d=" M468.204 159.322 426.553 135.274 426.553 159.322 447.379 171.345 Z"/>
<path class="left" fill="rgb(10.0%,10.0%,10.0%)" d=" M10.034 159.322 10.034 351.703 93.337 399.799 93.337 207.417 Z"/>
<path class="left" fill="rgb(10.0%,10.0%,10.0%)" d=" M134.989 159.322 93.337 135.274 93.337 159.322 114.163 171.345 Z"/>
<path class="right" fill="rgb(30.0%,30.0%,30.0%)" d=" M405.727 243.489 343.249 279.560 343.249 255.512 259.945 303.608 259.945 495.990 343.249 447.894 343.249 423.847 405.727 387.775 Z"/>
<path class="top" fill="rgb(50.0%,50.0%,50.0%)" d=" M259.945 231.465 301.597 255.512 280.771 267.536 259.945 255.512 239.119 267.536 218.293 255.512 ZM343.249 279.560 405.727 243.489 364.075 219.441 322.423 243.489 259.945 207.417 197.467 243.489 155.815 219.441 114.163 243.489 176.641 279.560 176.641 255.512 259.945 303.608 343.249 255.512 Z"/>
<path class="top" fill="rgb(50.0%,50.0%,50.0%)" d=" M426.553 135.274 468.204 159.322 447.379 171.345 426.553 159.322 405.727 171.345 384.901 159.322 ZM426.553 111.226 364.075 147.298 322.423 123.250 280.771 147.298 343.249 183.369 343.249 159.322 426.553 207.417 509.856 159.322 Z"/>
<path class="right" fill="rgb(30.0%,30.0%,30.0%)" d=" M426.553 207.417 426.553 399.799 509.856 351.703 509.856 159.322 Z"/>
<path class="left" fill="rgb(10.0%,10.0%,10.0%)" d=" M176.641 63.131 176.641 135.274 197.467 123.250 239.119 147.298 239.119 219.441 259.945 207.417 259.945 111.226 Z"/>
<path class="left" fill="rgb(10.0%,10.0%,10.0%)" d=" M176.641 255.512 176.641 279.560 114.163 243.489 114.163 387.775 176.641 423.847 176.641 447.894 259.945 495.990 259.945 303.608 Z"/>
<path class="right" fill="rgb(30.0%,30.0%,30.0%)" d=" M93.337 159.322 93.337 135.274 51.686 159.322 72.511 171.345 Z"/>
<path class="left" fill="rgb(10.0%,10.0%,10.0%)" d=" M343.249 159.322 343.249 183.369 280.771 147.298 280.771 219.441 322.423 243.489 364.075 219.441 405.727 243.489 405.727 387.775 426.553 399.799 426.553 207.417 Z"/>
<path class="right" fill="rgb(30.0%,30.0%,30.0%)" d=" M322.423 123.250 343.249 135.274 343.249 63.131 259.945 111.226 259.945 207.417 280.771 219.441 280.771 147.298 Z"/>
</svg>