<?xml version="1.0" encoding="utf-8"?>
<!-- Generator: Isometric v2.5.4 (isometricapp.com) -->
<!DOCTYPE svg PUBLIC "-//W3C//DTD SVG 1.1//EN" "http://www.w3.org/Graphics/SVG/1.1/DTD/svg11.dtd">
<svg version="1.1" id="Isometric" xmlns="http://www.w3.org/2000/svg" x="0px" y="0px" width="512px" height="512px">
<path class="left" fill="rgb(10.0%,10.0%,10.0%)" d=" M200.083 280.594 200.083 223.356 150.514 194.738 150.514 251.975 175.298 266.284 175.298 409.378 200.083 423.687 200.083 452.306 249.652 480.925 249.652 423.687 224.867 437.996 224.867 266.284 Z"/>
<path class="top" fill="rgb(80.0%,80.0%,80.0%)" d=" M249.652 23.025 200.083 51.644 249.652 80.263 299.221 51.644 Z"/>
<path class="left" fill="rgb(10.0%,10.0%,10.0%)" d=" M200.083 51.644 200.083 166.119 249.652 194.738 249.652 80.263 Z"/>
<path class="top" fill="rgb(80.0%,80.0%,80.0%)" d=" M200.083 166.119 150.514 194.738 200.083 223.356 249.652 194.738 Z"/>
<path class="top" fill="rgb(80.0%,80.0%,80.0%)" d=" M348.790 137.500 299.221 108.882 299.221 166.119 Z"/>
<path class="right" fill="rgb(50.0%,50.0%,50.0%)" d=" M324.005 209.047 348.790 194.738 348.790 137.500 299.221 166.119 299.221 51.644 249.652 80.263 249.652 194.738 200.083 223.356 200.083 280.594 224.867 266.284 224.867 437.996 249.652 423.687 249.652 480.925 299.221 452.306 299.221 395.068 324.005 380.759 Z"/>
</svg>