<?xml version="1.0" encoding="utf-8"?>
<!-- Generator: Isometric v2.5.4 (isometricapp.com) -->
<!DOCTYPE svg PUBLIC "-//W3C//DTD SVG 1.1//EN" "http://www.w3.org/Graphics/SVG/1.1/DTD/svg11.dtd">
<svg version="1.1" id="Isometric" xmlns="http://www.w3.org/2000/svg" x="0px" y="0px" width="512px" height="512px">
<path class="right" fill="rgb(50.0%,50.0%,50.0%)" d=" M292.063 111.475 259.664 130.180 259.664 181.620 283.963 167.591 283.963 153.562 292.063 148.885 Z"/>
<path class="left" fill="rgb(10.0%,10.0%,10.0%)" d=" M211.066 36.653 211.066 92.769 259.664 120.827 259.664 64.711 Z"/>
<path class="left" fill="rgb(10.0%,10.0%,10.0%)" d=" M227.266 111.475 227.266 148.885 235.365 153.562 235.365 167.591 259.664 181.620 259.664 130.180 Z"/>
<path class="right" fill="rgb(50.0%,50.0%,50.0%)" d=" M259.664 186.296 259.664 504.286 292.063 485.581 292.063 167.591 Z"/>
<path class="top" fill="rgb(80.0%,80.0%,80.0%)" d=" M283.963 162.914 283.963 167.591 259.664 181.620 235.365 167.591 235.365 162.914 227.266 167.591 259.664 186.296 292.063 167.591 Z"/>
<path class="right" fill="rgb(50.0%,50.0%,50.0%)" d=" M308.262 36.653 259.664 64.711 259.664 120.827 308.262 92.769 Z"/>
<path class="top" fill="rgb(80.0%,80.0%,80.0%)" d=" M283.963 106.798 259.664 120.827 235.365 106.798 227.266 111.475 259.664 130.180 292.063 111.475 Z"/>
<path class="top" fill="rgb(80.0%,80.0%,80.0%)" d=" M259.664 8.596 211.066 36.653 259.664 64.711 308.262 36.653 Z"/>
<path class="left" fill="rgb(10.0%,10.0%,10.0%)" d=" M227.266 167.591 227.266 485.581 259.664 504.286 259.664 186.296 Z"/>
</svg>